<svg width="319" height="68" viewBox="0 0 319 68" fill="none" xmlns="http://www.w3.org/2000/svg">
<path d="M316.189 34.9149L316.893 34L316.189 33.0851L298.331 9.88578L297.143 10.8007L298.331 9.88578C294.261 4.59816 287.967 1.5 281.294 1.5H37.706C31.0333 1.5 24.7388 4.59816 20.6687 9.88578L2.81136 33.0851L2.10709 34L2.81136 34.9149L20.6687 58.1142C24.7388 63.4018 31.0333 66.5 37.706 66.5H281.294C287.967 66.5 294.261 63.4018 298.331 58.1142L316.189 34.9149Z" fill="url(#paint0_linear_3_114)" stroke="white" stroke-width="3"/>
<path d="M107.562 42V31.3008H107.656L114.77 42H117.395V26.0039H114.441V36.6445H114.336L107.246 26.0039H104.609V42H107.562ZM125.773 42.2227C129.102 42.2227 130.719 40.2422 131.012 38.25H128.152C127.895 39.2578 127.027 39.8672 125.797 39.8672C124.227 39.8672 123.16 38.6719 123.16 36.7852V36.4453H131.129V35.2266C131.129 31.6523 129.031 29.3438 125.645 29.3438C122.375 29.3438 120.137 31.5 120.137 35.1445V36.2812C120.137 40.0898 122.363 42.2227 125.773 42.2227ZM123.16 34.4883V34.4648C123.16 32.8711 124.156 31.6406 125.668 31.6406C127.168 31.6406 128.141 32.8594 128.141 34.4648V34.4883H123.16ZM150.219 29.5664H147.137L145.285 38.7422H145.156L142.801 29.5664H139.895L137.539 38.7422H137.422L135.57 29.5664H132.453L135.629 42H138.898L141.289 33.1523H141.383L143.773 42H147.031L150.219 29.5664ZM162.066 44.2852C160.707 44.2852 159.793 43.6523 159.594 42.7734H156.605C156.781 44.8477 158.445 46.5469 162.02 46.5469C164.832 46.5469 167.797 45.2461 167.797 41.8477V29.5664H164.75V31.3945H164.621C164.117 30.2578 162.793 29.4023 161.082 29.4023C158.246 29.4023 156.336 31.4414 156.336 35.2148V35.9883C156.336 39.8086 158.258 41.8359 161.082 41.8359C162.816 41.8359 164.117 40.9688 164.586 39.8789H164.715V41.6484C164.715 43.3242 163.719 44.2852 162.066 44.2852ZM162.137 31.8633C163.684 31.8633 164.715 33.1289 164.715 35.3203V36.0469C164.715 38.2617 163.73 39.5156 162.137 39.5156C160.496 39.5156 159.5 38.2734 159.5 36.0469V35.3203C159.5 33.082 160.496 31.8633 162.137 31.8633ZM174.336 42.1875C176.164 42.1875 177.219 41.4023 177.711 40.4883H177.84V42H180.758V33.5977C180.758 30.7031 178.578 29.3672 175.719 29.3672C172.133 29.3672 170.797 31.2891 170.703 33.3633H173.586C173.668 32.3672 174.395 31.6992 175.66 31.6992C176.961 31.6992 177.711 32.3906 177.711 33.6328V34.7578H174.676C171.793 34.7578 170.246 36.1875 170.246 38.4141C170.246 40.7578 171.91 42.1875 174.336 42.1875ZM175.332 39.9375C174.301 39.9375 173.316 39.375 173.316 38.2148C173.316 37.2656 173.984 36.6094 175.344 36.6094H177.711V37.9219C177.711 39.1289 176.656 39.9375 175.332 39.9375ZM183.711 42H186.781V34.4531C186.781 32.7305 187.766 31.9453 188.973 31.9453C190.227 31.9453 191.152 32.6836 191.152 34.4766V42H194.129V34.4766C194.129 32.8828 194.961 31.9453 196.332 31.9453C197.645 31.9453 198.5 32.7773 198.5 34.3594V42H201.582V33.5039C201.582 31.0195 200.094 29.3672 197.527 29.3672C195.441 29.3672 194.152 30.4453 193.742 31.5H193.613C193.191 30.2227 192.043 29.3672 190.133 29.3672C188.27 29.3672 187.215 30.4453 186.875 31.3477H186.711V29.5664H183.711V42ZM209.727 42.2227C213.055 42.2227 214.672 40.2422 214.965 38.25H212.105C211.848 39.2578 210.98 39.8672 209.75 39.8672C208.18 39.8672 207.113 38.6719 207.113 36.7852V36.4453H215.082V35.2266C215.082 31.6523 212.984 29.3438 209.598 29.3438C206.328 29.3438 204.09 31.5 204.09 35.1445V36.2812C204.09 40.0898 206.316 42.2227 209.727 42.2227ZM207.113 34.4883V34.4648C207.113 32.8711 208.109 31.6406 209.621 31.6406C211.121 31.6406 212.094 32.8594 212.094 34.4648V34.4883H207.113Z" fill="white"/>
<defs>
<linearGradient id="paint0_linear_3_114" x1="159.5" y1="3" x2="159.5" y2="65" gradientUnits="userSpaceOnUse">
<stop stop-color="#E1CF30"/>
<stop offset="0.333333" stop-color="#E19A30"/>
<stop offset="0.796875" stop-color="#E19A30"/>
<stop offset="1" stop-color="#E1CF30"/>
</linearGradient>
</defs>
</svg>
