<svg width="32" height="32" viewBox="0 0 32 32" fill="none" xmlns="http://www.w3.org/2000/svg">
<circle cx="16" cy="16" r="12" fill="white" stroke="white" stroke-width="2.66667"/>
<path d="M13.3332 13.3333C12.6665 11.3333 13.9999 10 15.9999 10C18.6665 10 19.9999 12.6667 17.9999 14.6667C16.9458 15.7208 15.9999 16.3871 15.9999 18" stroke="#023961" stroke-width="2.66667" stroke-linecap="round"/>
<path d="M15.0555 23.6081C14.7963 23.3469 14.6666 23.0349 14.6666 22.6721C14.6666 22.302 14.7963 21.9864 15.0555 21.7251C15.3148 21.4639 15.6296 21.3333 16 21.3333C16.3703 21.3333 16.6851 21.4639 16.9444 21.7251C17.2037 21.9864 17.3333 22.302 17.3333 22.6721C17.3333 23.0349 17.2037 23.3469 16.9444 23.6081C16.6851 23.8694 16.3703 24 16 24C15.6296 24 15.3148 23.8694 15.0555 23.6081Z" fill="#023961"/>
</svg>
