<svg width="90" height="70" viewBox="0 0 90 70" fill="none" xmlns="http://www.w3.org/2000/svg">
<path d="M45 68.5C56.8967 68.5 67.7231 64.8278 75.6076 58.8206C83.4932 52.8124 88.5 44.4044 88.5 35C88.5 25.5956 83.4932 17.1876 75.6076 11.1794C67.7231 5.17225 56.8967 1.5 45 1.5C33.1033 1.5 22.2769 5.17225 14.3925 11.1794C6.50679 17.1876 1.5 25.5956 1.5 35C1.5 44.4044 6.50679 52.8124 14.3925 58.8206C22.2769 64.8278 33.1033 68.5 45 68.5Z" fill="url(#paint0_linear_1_299)" stroke="white" stroke-width="3"/>
<path d="M21.9932 37.7744C22.0635 39.6465 23.5752 41.2285 26.2998 41.2285C28.9629 41.2285 30.9141 39.5586 30.9141 36.9482C30.9141 34.5049 29.0684 32.9756 26.9678 32.9756C25.5703 32.9756 24.665 33.6084 24.3926 34.0039H24.3135L24.6123 30.9102H30.0352V28.9941H22.7139L22.1426 36.0518H24.2256C24.498 35.4629 25.1748 34.7773 26.3701 34.7773C27.6182 34.7773 28.5938 35.6738 28.5938 37.0537C28.5938 38.5127 27.46 39.3564 26.3613 39.3564C25.1836 39.3564 24.3311 38.75 24.1816 37.7744H21.9932ZM32.3291 35.4189C32.3291 38.8994 33.9199 41.2285 36.8467 41.2285C39.8701 41.2285 41.4082 38.7588 41.4082 35.4189V34.584C41.4082 31.0771 39.8262 28.7744 36.8906 28.7744C33.9727 28.7744 32.3291 31.0947 32.3291 34.584V35.4189ZM34.6934 34.5928C34.6934 32.0352 35.5459 30.7168 36.8643 30.7168C38.1914 30.7168 39.0352 32.0439 39.0352 34.5928V35.4014C39.0352 37.959 38.1914 39.2949 36.8643 39.2949C35.5459 39.2949 34.6934 37.9678 34.6934 35.4014V34.5928ZM43.0693 32.123C43.0693 32.8701 43.6846 33.4854 44.4316 33.4854C45.1787 33.4854 45.7939 32.8701 45.7939 32.123C45.7939 31.3672 45.1787 30.7607 44.4316 30.7607C43.6846 30.7607 43.0693 31.3672 43.0693 32.123ZM43.0693 38.1963C43.0693 38.9434 43.6846 39.5586 44.4316 39.5586C45.1787 39.5586 45.7939 38.9434 45.7939 38.1963C45.7939 37.4492 45.1787 36.834 44.4316 36.834C43.6846 36.834 43.0693 37.4492 43.0693 38.1963ZM47.8154 37.7744C47.8857 39.6465 49.3975 41.2285 52.1221 41.2285C54.7852 41.2285 56.7363 39.5586 56.7363 36.9482C56.7363 34.5049 54.8906 32.9756 52.79 32.9756C51.3926 32.9756 50.4873 33.6084 50.2148 34.0039H50.1357L50.4346 30.9102H55.8574V28.9941H48.5361L47.9648 36.0518H50.0479C50.3203 35.4629 50.9971 34.7773 52.1924 34.7773C53.4404 34.7773 54.416 35.6738 54.416 37.0537C54.416 38.5127 53.2822 39.3564 52.1836 39.3564C51.0059 39.3564 50.1533 38.75 50.0039 37.7744H47.8154ZM58.1514 35.4189C58.1514 38.8994 59.7422 41.2285 62.6689 41.2285C65.6924 41.2285 67.2305 38.7588 67.2305 35.4189V34.584C67.2305 31.0771 65.6484 28.7744 62.7129 28.7744C59.7949 28.7744 58.1514 31.0947 58.1514 34.584V35.4189ZM60.5156 34.5928C60.5156 32.0352 61.3682 30.7168 62.6865 30.7168C64.0137 30.7168 64.8574 32.0439 64.8574 34.5928V35.4014C64.8574 37.959 64.0137 39.2949 62.6865 39.2949C61.3682 39.2949 60.5156 37.9678 60.5156 35.4014V34.5928Z" fill="white"/>
<defs>
<linearGradient id="paint0_linear_1_299" x1="45" y1="3" x2="45" y2="67" gradientUnits="userSpaceOnUse">
<stop stop-color="#025D83"/>
<stop offset="0.333333" stop-color="#022B54"/>
<stop offset="0.796875" stop-color="#020631"/>
<stop offset="1" stop-color="#083C66"/>
</linearGradient>
</defs>
</svg>
