<svg width="90" height="70" viewBox="0 0 90 70" fill="none" xmlns="http://www.w3.org/2000/svg">
<path d="M45 68.5C56.8967 68.5 67.7231 64.8278 75.6076 58.8206C83.4932 52.8124 88.5 44.4044 88.5 35C88.5 25.5956 83.4932 17.1876 75.6076 11.1794C67.7231 5.17225 56.8967 1.5 45 1.5C33.1033 1.5 22.2769 5.17225 14.3925 11.1794C6.50679 17.1876 1.5 25.5956 1.5 35C1.5 44.4044 6.50679 52.8124 14.3925 58.8206C22.2769 64.8278 33.1033 68.5 45 68.5Z" fill="url(#paint0_linear_1_307)" stroke="white" stroke-width="3"/>
<path d="M38.7943 24.0888L37.8989 23.7904C36.4401 23.3041 34.876 24.1627 34.5031 25.6545C33.8034 28.4531 34.0049 31.4262 35.4333 33.9324C36.5186 35.8366 37.9732 38.0564 39.6191 39.7023C41.2649 41.3482 43.4848 42.8027 45.389 43.888C47.8952 45.3164 50.8683 45.5179 53.6669 44.8183C55.1587 44.4453 56.0173 42.8813 55.531 41.4225L55.2325 40.5271C54.4998 38.329 51.8777 37.4293 49.9499 38.7145L48.4682 39.7023C48.4682 39.7023 46.6984 39.7023 43.1587 36.1626C39.6191 32.623 39.6191 30.8531 39.6191 30.8531L40.6068 29.3715C41.892 27.4437 40.9923 24.8215 38.7943 24.0888Z" stroke="white" stroke-width="2.66667" stroke-linecap="round" stroke-linejoin="round"/>
<defs>
<linearGradient id="paint0_linear_1_307" x1="45" y1="3" x2="45" y2="67" gradientUnits="userSpaceOnUse">
<stop stop-color="#025D83"/>
<stop offset="0.333333" stop-color="#022B54"/>
<stop offset="0.796875" stop-color="#020631"/>
<stop offset="1" stop-color="#083C66"/>
</linearGradient>
</defs>
</svg>
