<svg width="32" height="32" viewBox="0 0 32 32" fill="none" xmlns="http://www.w3.org/2000/svg">
<path d="M6 16C6 15.4477 6.44772 15 7 15H25C25.5523 15 26 15.4477 26 16C26 16.5523 25.5523 17 25 17H7C6.44772 17 6 16.5523 6 16Z" fill="white"/>
<path fill-rule="evenodd" clip-rule="evenodd" d="M15.2526 8.34151C15.6163 8.75715 15.5741 9.38891 15.1585 9.75259L8.01859 16L15.1585 22.2474C15.5741 22.6111 15.6163 23.2429 15.2526 23.6585C14.8889 24.0742 14.2571 24.1163 13.8415 23.7526L5.8415 16.7526C5.62448 16.5627 5.5 16.2884 5.5 16C5.5 15.7117 5.62448 15.4373 5.8415 15.2474L13.8415 8.24744C14.2571 7.88375 14.8889 7.92587 15.2526 8.34151Z" fill="white"/>
</svg>
