<svg width="68" height="11" viewBox="0 0 68 11" fill="none" xmlns="http://www.w3.org/2000/svg">
<path d="M5.05664 10.4375C7.97559 10.4375 9.97852 8.37305 9.97852 5.59766V4.89355C9.97852 2.30957 7.93457 0.210938 5.05664 0.210938C2.18555 0.210938 0.134766 2.28223 0.134766 4.89355V5.59766C0.134766 8.37305 2.14453 10.4375 5.05664 10.4375ZM1.03711 5.61816V4.89355C1.03711 2.78125 2.65723 1.09961 5.05664 1.09961C7.44238 1.09961 9.08984 2.78809 9.08984 4.89355V5.61816C9.08984 7.89453 7.46289 9.55566 5.05664 9.55566C2.63672 9.55566 1.03711 7.89453 1.03711 5.61816ZM2.74609 5.67969C2.74609 7.16992 3.74414 7.96973 5.09766 7.96973C6.49902 7.96973 7.26465 7.14258 7.28516 6.22656H6.15039C6.0957 6.62305 5.78125 6.91699 5.10449 6.91699C4.41406 6.91699 3.92188 6.54785 3.92188 5.68652V5.04395C3.92188 4.12793 4.36621 3.74512 5.10449 3.74512C5.81543 3.74512 6.0957 4.20312 6.12988 4.55176H7.26465C7.24414 3.61523 6.41699 2.7334 5.09766 2.7334C3.74414 2.7334 2.74609 3.55371 2.74609 5.00293V5.67969ZM18.7148 10V2.21387H21.3672V0.668945H14.2168V2.21387H16.8623V10H18.7148ZM28.832 8.48926H24.6553V5.9873H28.5859V4.57227H24.6553V2.17969H28.832V0.668945H22.8232V10H28.832V8.48926ZM31.8672 10L32.5986 7.60059H35.7158L36.4473 10H38.4092L35.292 0.668945H33.1318L30.001 10H31.8672ZM34.2051 2.45312L35.3467 6.22656H32.9814L34.123 2.45312H34.2051ZM41.5264 10V3.79297H41.6152L43.8369 8.83105H45.04L47.248 3.79297H47.3369V10H49.0049V0.668945H47.1387L44.4795 6.72559H44.418L41.7588 0.668945H39.8789V10H41.5264ZM58.2881 10V0.668945H56.4561L54.248 2.25488V3.9502L56.3672 2.44629H56.4561V10H58.2881ZM60.8242 5.54297C60.8242 8.35938 62.1436 10.1777 64.3584 10.1777C66.5732 10.1777 67.9199 8.33887 67.9199 5.54297V5.12598C67.9199 2.30273 66.6143 0.491211 64.3926 0.491211C62.1641 0.491211 60.8242 2.33008 60.8242 5.12598V5.54297ZM62.6699 5.13281C62.6699 3.1709 63.3125 2.00195 64.3721 2.00195C65.4316 2.00195 66.0742 3.1709 66.0742 5.13281V5.5293C66.0742 7.49805 65.4248 8.67383 64.3721 8.67383C63.3193 8.67383 62.6699 7.49805 62.6699 5.5293V5.13281Z" fill="white"/>
</svg>
