<svg width="90" height="70" viewBox="0 0 90 70" fill="none" xmlns="http://www.w3.org/2000/svg">
<path d="M45 68.5C56.8967 68.5 67.7231 64.8278 75.6076 58.8206C83.4932 52.8124 88.5 44.4044 88.5 35C88.5 25.5956 83.4932 17.1876 75.6076 11.1794C67.7231 5.17225 56.8967 1.5 45 1.5C33.1033 1.5 22.2769 5.17225 14.3925 11.1794C6.50679 17.1876 1.5 25.5956 1.5 35C1.5 44.4044 6.50679 52.8124 14.3925 58.8206C22.2769 64.8278 33.1033 68.5 45 68.5Z" fill="url(#paint0_linear_1_302)" stroke="white" stroke-width="3"/>
<path fill-rule="evenodd" clip-rule="evenodd" d="M41 41.6667C41 36.512 45.1787 32.3333 50.3333 32.3333C55.488 32.3333 59.6666 36.512 59.6666 41.6667V44.7778C59.6666 46.7415 58.0748 48.3333 56.1111 48.3333H42.3333C41.5969 48.3333 41 47.7364 41 47V41.6667ZM50.3333 35C46.6514 35 43.6666 37.9848 43.6666 41.6667V45.6667H56.1111C56.602 45.6667 57 45.2687 57 44.7778V41.6667C57 37.9848 54.0152 35 50.3333 35Z" fill="white"/>
<path d="M30.3333 43.6667C30.3333 39.6166 33.6166 36.3333 37.6666 36.3333C39.768 36.3333 41.663 37.2172 43 38.6334L41.8842 41.6667C41.1352 40.09 39.5282 39 37.6666 39C35.0893 39 33 41.0893 33 43.6667V44.8462C33 45.2993 33.3673 45.6667 33.8205 45.6667H42.1111V48.3333H33.8205C31.8946 48.3333 30.3333 46.7721 30.3333 44.8462V43.6667Z" fill="white"/>
<path fill-rule="evenodd" clip-rule="evenodd" d="M50.3333 31C51.8061 31 53 29.8061 53 28.3333C53 26.8606 51.8061 25.6667 50.3333 25.6667C48.8606 25.6667 47.6666 26.8606 47.6666 28.3333C47.6666 29.8061 48.8606 31 50.3333 31ZM50.3333 33.6667C53.2788 33.6667 55.6666 31.2789 55.6666 28.3333C55.6666 25.3878 53.2788 23 50.3333 23C47.3878 23 45 25.3878 45 28.3333C45 31.2789 47.3878 33.6667 50.3333 33.6667Z" fill="white"/>
<path fill-rule="evenodd" clip-rule="evenodd" d="M37.6666 35C38.7712 35 39.6666 34.1046 39.6666 33C39.6666 31.8954 38.7712 31 37.6666 31C36.5621 31 35.6666 31.8954 35.6666 33C35.6666 34.1046 36.5621 35 37.6666 35ZM37.6666 37.6667C40.244 37.6667 42.3333 35.5773 42.3333 33C42.3333 30.4227 40.244 28.3333 37.6666 28.3333C35.0893 28.3333 33 30.4227 33 33C33 35.5773 35.0893 37.6667 37.6666 37.6667Z" fill="white"/>
<defs>
<linearGradient id="paint0_linear_1_302" x1="45" y1="3" x2="45" y2="67" gradientUnits="userSpaceOnUse">
<stop stop-color="#025D83"/>
<stop offset="0.333333" stop-color="#022B54"/>
<stop offset="0.796875" stop-color="#020631"/>
<stop offset="1" stop-color="#083C66"/>
</linearGradient>
</defs>
</svg>
